solid "outlet"
   facet normal 0 -1 0
      outer loop
         vertex -1115.048 -10955.5 3.49024337756996E-14
         vertex -1115.16746062737 -10955.5 8.25095671797742
         vertex -1115.16746062737 -10955.5 -8.2509567179773
      endloop
   endfacet
   facet normal 0 -1 0
      outer loop
         vertex -1115.16746062737 -10955.5 -8.2509567179773
         vertex -1115.16746062737 -10955.5 8.25095671797742
         vertex -1115.52574236324 -10955.5 -16.4949964923336
      endloop
   endfacet
   facet normal 0 -1 0
      outer loop
         vertex -1115.16746062737 -10955.5 8.25095671797742
         vertex -1115.52574236324 -10955.5 16.4949964923337
         vertex -1115.52574236324 -10955.5 -16.4949964923336
      endloop
   endfacet
   facet normal 0 -1 0
      outer loop
         vertex -1115.52574236324 -10955.5 -16.4949964923336
         vertex -1115.52574236324 -10955.5 16.4949964923337
         vertex -1116.12254485279 -10955.5 -24.7252081780619
      endloop
   endfacet
   facet normal 0 -1 0
      outer loop
         vertex -1115.52574236324 -10955.5 16.4949964923337
         vertex -1116.12254485279 -10955.5 24.7252081780619
         vertex -1116.12254485279 -10955.5 -24.7252081780619
      endloop
   endfacet
   facet normal 0 -1 0
      outer loop
         vertex -1116.12254485279 -10955.5 -24.7252081780619
         vertex -1116.12254485279 -10955.5 24.7252081780619
         vertex -1116.95736778444 -10955.5 -32.9346922225204
      endloop
   endfacet
   facet normal 0 -1 0
      outer loop
         vertex -1116.12254485279 -10955.5 24.7252081780619
         vertex -1116.95736778444 -10955.5 32.9346922225204
         vertex -1116.95736778444 -10955.5 -32.9346922225204
      endloop
   endfacet
   facet normal 0 -1 0
      outer loop
         vertex -1116.95736778444 -10955.5 -32.9346922225204
         vertex -1116.95736778444 -10955.5 32.9346922225204
         vertex -1118.02951130926 -10955.5 -41.1165664494684
      endloop
   endfacet
   facet normal 0 -1 0
      outer loop
         vertex -1116.95736778444 -10955.5 32.9346922225204
         vertex -1118.02951130926 -10955.5 41.1165664494685
         vertex -1118.02951130926 -10955.5 -41.1165664494684
      endloop
   endfacet
   facet normal 0 -1 0
      outer loop
         vertex -1118.02951130926 -10955.5 -41.1165664494684
         vertex -1118.02951130926 -10955.5 41.1165664494685
         vertex -1119.33807662771 -10955.5 -49.2639718285318
      endloop
   endfacet
   facet normal 0 -1 0
      outer loop
         vertex -1118.02951130926 -10955.5 41.1165664494685
         vertex -1119.33807662771 -10955.5 49.2639718285318
         vertex -1119.33807662771 -10955.5 -49.2639718285318
      endloop
   endfacet
   facet normal 0 -1 0
      outer loop
         vertex -1119.33807662771 -10955.5 -49.2639718285318
         vertex -1119.33807662771 -10955.5 49.2639718285318
         vertex -1120.88196674304 -10955.5 -57.3700782252682
      endloop
   endfacet
   facet normal 0 -1 0
      outer loop
         vertex -1119.33807662771 -10955.5 49.2639718285318
         vertex -1120.88196674304 -10955.5 57.3700782252682
         vertex -1120.88196674304 -10955.5 -57.3700782252682
      endloop
   endfacet
   facet normal 0 -1 0
      outer loop
         vertex -1120.88196674304 -10955.5 -57.3700782252682
         vertex -1120.88196674304 -10955.5 57.3700782252682
         vertex -1122.659887381 -10955.5 -65.428090127006
      endloop
   endfacet
   facet normal 0 -1 0
      outer loop
         vertex -1120.88196674304 -10955.5 57.3700782252682
         vertex -1122.659887381 -10955.5 65.4280901270061
         vertex -1122.659887381 -10955.5 -65.428090127006
      endloop
   endfacet
   facet normal 0 -1 0
      outer loop
         vertex -1122.659887381 -10955.5 -65.428090127006
         vertex -1122.659887381 -10955.5 65.4280901270061
         vertex -1124.67034807481 -10955.5 -73.4312523396596
      endloop
   endfacet
   facet normal 0 -1 0
      outer loop
         vertex -1122.659887381 -10955.5 65.4280901270061
         vertex -1124.67034807481 -10955.5 73.4312523396597
         vertex -1124.67034807481 -10955.5 -73.4312523396596
      endloop
   endfacet
   facet normal 0 -1 0
      outer loop
         vertex -1124.67034807481 -10955.5 -73.4312523396596
         vertex -1124.67034807481 -10955.5 73.4312523396597
         vertex -1126.91166341469 -10955.5 -81.3728556507456
      endloop
   endfacet
   facet normal 0 -1 0
      outer loop
         vertex -1124.67034807481 -10955.5 73.4312523396597
         vertex -1126.91166341469 -10955.5 81.3728556507456
         vertex -1126.91166341469 -10955.5 -81.3728556507456
      endloop
   endfacet
   facet normal 0 -1 0
      outer loop
         vertex -1126.91166341469 -10955.5 -81.3728556507456
         vertex -1126.91166341469 -10955.5 81.3728556507456
         vertex -1129.38195446073 -10955.5 -89.2462424538507
      endloop
   endfacet
   facet normal 0 -1 0
      outer loop
         vertex -1126.91166341469 -10955.5 81.3728556507456
         vertex -1129.38195446073 -10955.5 89.2462424538507
         vertex -1129.38195446073 -10955.5 -89.2462424538507
      endloop
   endfacet
   facet normal 0 -1 0
      outer loop
         vertex -1129.38195446073 -10955.5 -89.2462424538507
         vertex -1129.38195446073 -10955.5 89.2462424538507
         vertex -1132.07915031805 -10955.5 -97.0448123298376
      endloop
   endfacet
   facet normal 0 -1 0
      outer loop
         vertex -1129.38195446073 -10955.5 89.2462424538507
         vertex -1132.07915031805 -10955.5 97.0448123298377
         vertex -1132.07915031805 -10955.5 -97.0448123298376
      endloop
   endfacet
   facet normal 0 -1 0
      outer loop
         vertex -1132.07915031805 -10955.5 -97.0448123298376
         vertex -1132.07915031805 -10955.5 97.0448123298377
         vertex -1135.00098987292 -10955.5 -104.76202758011
      endloop
   endfacet
   facet normal 0 -1 0
      outer loop
         vertex -1132.07915031805 -10955.5 97.0448123298377
         vertex -1135.00098987292 -10955.5 104.76202758011
         vertex -1135.00098987292 -10955.5 -104.76202758011
      endloop
   endfacet
   facet normal 0 -1 0
      outer loop
         vertex -1135.00098987292 -10955.5 -104.76202758011
         vertex -1135.00098987292 -10955.5 104.76202758011
         vertex -1138.14502368823 -10955.5 -112.391418707296
      endloop
   endfacet
   facet normal 0 -1 0
      outer loop
         vertex -1135.00098987292 -10955.5 104.76202758011
         vertex -1138.14502368823 -10955.5 112.391418707296
         vertex -1138.14502368823 -10955.5 -112.391418707296
      endloop
   endfacet
   facet normal 0 -1 0
      outer loop
         vertex -1138.14502368823 -10955.5 -112.391418707296
         vertex -1138.14502368823 -10955.5 112.391418707296
         vertex -1141.50861605696 -10955.5 -119.926589838761
      endloop
   endfacet
   facet normal 0 -1 0
      outer loop
         vertex -1138.14502368823 -10955.5 112.391418707296
         vertex -1141.50861605696 -10955.5 119.926589838761
         vertex -1141.50861605696 -10955.5 -119.926589838761
      endloop
   endfacet
   facet normal 0 -1 0
      outer loop
         vertex -1141.50861605696 -10955.5 -119.926589838761
         vertex -1141.50861605696 -10955.5 119.926589838761
         vertex -1145.0889472117 -10955.5 -127.361224088394
      endloop
   endfacet
   facet normal 0 -1 0
      outer loop
         vertex -1141.50861605696 -10955.5 119.926589838761
         vertex -1145.0889472117 -10955.5 127.361224088394
         vertex -1145.0889472117 -10955.5 -127.361224088394
      endloop
   endfacet
   facet normal 0 -1 0
      outer loop
         vertex -1145.0889472117 -10955.5 -127.361224088394
         vertex -1145.0889472117 -10955.5 127.361224088394
         vertex -1148.88301568855 -10955.5 -134.689088852183
      endloop
   endfacet
   facet normal 0 -1 0
      outer loop
         vertex -1145.0889472117 -10955.5 127.361224088394
         vertex -1148.88301568855 -10955.5 134.689088852183
         vertex -1148.88301568855 -10955.5 -134.689088852183
      endloop
   endfacet
   facet normal 0 -1 0
      outer loop
         vertex -1148.88301568855 -10955.5 -134.689088852183
         vertex -1148.88301568855 -10955.5 134.689088852183
         vertex -1152.8876408433 -10955.5 -141.904041033132
      endloop
   endfacet
   facet normal 0 -1 0
      outer loop
         vertex -1148.88301568855 -10955.5 134.689088852183
         vertex -1152.8876408433 -10955.5 141.904041033132
         vertex -1152.8876408433 -10955.5 -141.904041033132
      endloop
   endfacet
   facet normal 0 -1 0
      outer loop
         vertex -1152.8876408433 -10955.5 -141.904041033132
         vertex -1152.8876408433 -10955.5 141.904041033132
         vertex -1157.09946551782 -10955.5 -149.000032191142
      endloop
   endfacet
   facet normal 0 -1 0
      outer loop
         vertex -1152.8876408433 -10955.5 141.904041033132
         vertex -1157.09946551782 -10955.5 149.000032191142
         vertex -1157.09946551782 -10955.5 -149.000032191142
      endloop
   endfacet
   facet normal 0 -1 0
      outer loop
         vertex -1157.09946551782 -10955.5 -149.000032191142
         vertex -1157.09946551782 -10955.5 149.000032191142
         vertex -1161.51495885444 -10955.5 -155.971113613542
      endloop
   endfacet
   facet normal 0 -1 0
      outer loop
         vertex -1157.09946551782 -10955.5 149.000032191142
         vertex -1161.51495885444 -10955.5 155.971113613542
         vertex -1161.51495885444 -10955.5 -155.971113613542
      endloop
   endfacet
   facet normal 0 -1 0
      outer loop
         vertex -1161.51495885444 -10955.5 -155.971113613542
         vertex -1161.51495885444 -10955.5 155.971113613542
         vertex -1166.13041925593 -10955.5 -162.811441302016
      endloop
   endfacet
   facet normal 0 -1 0
      outer loop
         vertex -1161.51495885444 -10955.5 155.971113613542
         vertex -1166.13041925593 -10955.5 162.811441302016
         vertex -1166.13041925593 -10955.5 -162.811441302016
      endloop
   endfacet
   facet normal 0 -1 0
      outer loop
         vertex -1166.13041925593 -10955.5 -162.811441302016
         vertex -1166.13041925593 -10955.5 162.811441302016
         vertex -1170.94197748864 -10955.5 -169.515280871741
      endloop
   endfacet
   facet normal 0 -1 0
      outer loop
         vertex -1166.13041925593 -10955.5 162.811441302016
         vertex -1170.94197748864 -10955.5 169.515280871741
         vertex -1170.94197748864 -10955.5 -169.515280871741
      endloop
   endfacet
   facet normal 0 -1 0
      outer loop
         vertex -1170.94197748864 -10955.5 -169.515280871741
         vertex -1170.94197748864 -10955.5 169.515280871741
         vertex -1175.94559992616 -10955.5 -176.077012358641
      endloop
   endfacet
   facet normal 0 -1 0
      outer loop
         vertex -1170.94197748864 -10955.5 169.515280871741
         vertex -1175.94559992616 -10955.5 176.077012358641
         vertex -1175.94559992616 -10955.5 -176.077012358641
      endloop
   endfacet
   facet normal 0 -1 0
      outer loop
         vertex -1175.94559992616 -10955.5 -176.077012358641
         vertex -1175.94559992616 -10955.5 176.077012358641
         vertex -1181.13709193076 -10955.5 -182.491134930717
      endloop
   endfacet
   facet normal 0 -1 0
      outer loop
         vertex -1175.94559992616 -10955.5 176.077012358641
         vertex -1181.13709193076 -10955.5 182.491134930717
         vertex -1181.13709193076 -10955.5 -182.491134930717
      endloop
   endfacet
   facet normal 0 -1 0
      outer loop
         vertex -1181.13709193076 -10955.5 -182.491134930717
         vertex -1181.13709193076 -10955.5 182.491134930717
         vertex -1186.51210136987 -10955.5 -188.7522714995
      endloop
   endfacet
   facet normal 0 -1 0
      outer loop
         vertex -1181.13709193076 -10955.5 182.491134930717
         vertex -1186.51210136987 -10955.5 188.7522714995
         vertex -1186.51210136987 -10955.5 -188.7522714995
      endloop
   endfacet
   facet normal 0 -1 0
      outer loop
         vertex -1186.51210136987 -10955.5 -188.7522714995
         vertex -1186.51210136987 -10955.5 188.7522714995
         vertex -1192.06612226453 -10955.5 -194.855173227781
      endloop
   endfacet
   facet normal 0 -1 0
      outer loop
         vertex -1186.51210136987 -10955.5 188.7522714995
         vertex -1192.06612226453 -10955.5 194.855173227781
         vertex -1192.06612226453 -10955.5 -194.855173227781
      endloop
   endfacet
   facet normal 0 -1 0
      outer loop
         vertex -1192.06612226453 -10955.5 -194.855173227781
         vertex -1192.06612226453 -10955.5 194.855173227781
         vertex -1197.79449856689 -10955.5 -200.794723929809
      endloop
   endfacet
   facet normal 0 -1 0
      outer loop
         vertex -1192.06612226453 -10955.5 194.855173227781
         vertex -1197.79449856689 -10955.5 200.794723929809
         vertex -1197.79449856689 -10955.5 -200.794723929809
      endloop
   endfacet
   facet normal 0 -1 0
      outer loop
         vertex -1197.79449856689 -10955.5 -200.794723929809
         vertex -1197.79449856689 -10955.5 200.794723929809
         vertex -1203.69242806343 -10955.5 -206.565944360299
      endloop
   endfacet
   facet normal 0 -1 0
      outer loop
         vertex -1197.79449856689 -10955.5 200.794723929809
         vertex -1203.69242806343 -10955.5 206.565944360299
         vertex -1203.69242806343 -10955.5 -206.565944360299
      endloop
   endfacet
   facet normal 0 -1 0
      outer loop
         vertex -1203.69242806343 -10955.5 -206.565944360299
         vertex -1203.69242806343 -10955.5 206.565944360299
         vertex -1209.75496640075 -10955.5 -212.163996388632
      endloop
   endfacet
   facet normal 0 -1 0
      outer loop
         vertex -1203.69242806343 -10955.5 206.565944360299
         vertex -1209.75496640075 -10955.5 212.163996388632
         vertex -1209.75496640075 -10955.5 -212.163996388632
      endloop
   endfacet
   facet normal 0 -1 0
      outer loop
         vertex -1209.75496640075 -10955.5 -212.163996388632
         vertex -1209.75496640075 -10955.5 212.163996388632
         vertex -1215.97703123056 -10955.5 -217.584187054755
      endloop
   endfacet
   facet normal 0 -1 0
      outer loop
         vertex -1209.75496640075 -10955.5 212.163996388632
         vertex -1215.97703123056 -10955.5 217.584187054755
         vertex -1215.97703123056 -10955.5 -217.584187054755
      endloop
   endfacet
   facet normal 0 -1 0
      outer loop
         vertex -1215.97703123056 -10955.5 -217.584187054755
         vertex -1215.97703123056 -10955.5 217.584187054755
         vertex -1222.35340647026 -10955.5 -222.821972503389
      endloop
   endfacet
   facet normal 0 -1 0
      outer loop
         vertex -1215.97703123056 -10955.5 217.584187054755
         vertex -1222.35340647026 -10955.5 222.821972503389
         vertex -1222.35340647026 -10955.5 -222.821972503389
      endloop
   endfacet
   facet normal 0 -1 0
      outer loop
         vertex -1222.35340647026 -10955.5 -222.821972503389
         vertex -1222.35340647026 -10955.5 222.821972503389
         vertex -1228.87874667575 -10955.5 -227.872961793228
      endloop
   endfacet
   facet normal 0 -1 0
      outer loop
         vertex -1222.35340647026 -10955.5 222.821972503389
         vertex -1228.87874667575 -10955.5 227.872961793228
         vertex -1228.87874667575 -10955.5 -227.872961793228
      endloop
   endfacet
   facet normal 0 -1 0
      outer loop
         vertex -1228.87874667575 -10955.5 -227.872961793228
         vertex -1228.87874667575 -10955.5 227.872961793228
         vertex -1235.54758152256 -10955.5 -232.732920577963
      endloop
   endfacet
   facet normal 0 -1 0
      outer loop
         vertex -1228.87874667575 -10955.5 227.872961793228
         vertex -1235.54758152256 -10955.5 232.732920577963
         vertex -1235.54758152256 -10955.5 -232.732920577963
      endloop
   endfacet
   facet normal 0 -1 0
      outer loop
         vertex -1235.54758152256 -10955.5 -232.732920577963
         vertex -1235.54758152256 -10955.5 232.732920577963
         vertex -1242.3543203918 -10955.5 -237.397774656011
      endloop
   endfacet
   facet normal 0 -1 0
      outer loop
         vertex -1235.54758152256 -10955.5 232.732920577963
         vertex -1242.3543203918 -10955.5 237.397774656011
         vertex -1242.3543203918 -10955.5 -237.397774656011
      endloop
   endfacet
   facet normal 0 -1 0
      outer loop
         vertex -1242.3543203918 -10955.5 -237.397774656011
         vertex -1242.3543203918 -10955.5 237.397774656011
         vertex -1249.29325705682 -10955.5 -241.863613386004
      endloop
   endfacet
   facet normal 0 -1 0
      outer loop
         vertex -1242.3543203918 -10955.5 237.397774656011
         vertex -1249.29325705682 -10955.5 241.863613386004
         vertex -1249.29325705682 -10955.5 -241.863613386004
      endloop
   endfacet
   facet normal 0 -1 0
      outer loop
         vertex -1249.29325705682 -10955.5 -241.863613386004
         vertex -1249.29325705682 -10955.5 241.863613386004
         vertex -1256.3585744669 -10955.5 -246.126692965161
      endloop
   endfacet
   facet normal 0 -1 0
      outer loop
         vertex -1249.29325705682 -10955.5 241.863613386004
         vertex -1256.3585744669 -10955.5 246.126692965162
         vertex -1256.3585744669 -10955.5 -246.126692965161
      endloop
   endfacet
   facet normal 0 -1 0
      outer loop
         vertex -1256.3585744669 -10955.5 -246.126692965161
         vertex -1256.3585744669 -10955.5 246.126692965162
         vertex -1263.54434962379 -10955.5 -250.183439567791
      endloop
   endfacet
   facet normal 0 -1 0
      outer loop
         vertex -1256.3585744669 -10955.5 246.126692965162
         vertex -1263.54434962379 -10955.5 250.183439567791
         vertex -1263.54434962379 -10955.5 -250.183439567791
      endloop
   endfacet
   facet normal 0 -1 0
      outer loop
         vertex -1263.54434962379 -10955.5 -250.183439567791
         vertex -1263.54434962379 -10955.5 250.183439567791
         vertex -1270.8445585471 -10955.5 -254.030452341302
      endloop
   endfacet
   facet normal 0 -1 0
      outer loop
         vertex -1263.54434962379 -10955.5 250.183439567791
         vertex -1270.8445585471 -10955.5 254.030452341302
         vertex -1270.8445585471 -10955.5 -254.030452341302
      endloop
   endfacet
   facet normal 0 -1 0
      outer loop
         vertex -1270.8445585471 -10955.5 -254.030452341302
         vertex -1270.8445585471 -10955.5 254.030452341302
         vertex -1278.25308132426 -10955.5 -257.664506257206
      endloop
   endfacet
   facet normal 0 -1 0
      outer loop
         vertex -1270.8445585471 -10955.5 254.030452341302
         vertex -1278.25308132426 -10955.5 257.664506257206
         vertex -1278.25308132426 -10955.5 -257.664506257206
      endloop
   endfacet
   facet normal 0 -1 0
      outer loop
         vertex -1278.25308132426 -10955.5 -257.664506257206
         vertex -1278.25308132426 -10955.5 257.664506257206
         vertex -1285.76370724104 -10955.5 -261.082554814727
      endloop
   endfacet
   facet normal 0 -1 0
      outer loop
         vertex -1278.25308132426 -10955.5 257.664506257206
         vertex -1285.76370724104 -10955.5 261.082554814727
         vertex -1285.76370724104 -10955.5 -261.082554814727
      endloop
   endfacet
   facet normal 0 -1 0
      outer loop
         vertex -1285.76370724104 -10955.5 -261.082554814727
         vertex -1285.76370724104 -10955.5 261.082554814727
         vertex -1293.37013998809 -10955.5 -264.281732594741
      endloop
   endfacet
   facet normal 0 -1 0
      outer loop
         vertex -1285.76370724104 -10955.5 261.082554814727
         vertex -1293.37013998809 -10955.5 264.281732594741
         vertex -1293.37013998809 -10955.5 -264.281732594741
      endloop
   endfacet
   facet normal 0 -1 0
      outer loop
         vertex -1293.37013998809 -10955.5 -264.281732594741
         vertex -1293.37013998809 -10955.5 264.281732594741
         vertex -1301.06600293923 -10955.5 -267.259357661918
      endloop
   endfacet
   facet normal 0 -1 0
      outer loop
         vertex -1293.37013998809 -10955.5 264.281732594741
         vertex -1301.06600293923 -10955.5 267.259357661918
         vertex -1301.06600293923 -10955.5 -267.259357661918
      endloop
   endfacet
   facet normal 0 -1 0
      outer loop
         vertex -1301.06600293923 -10955.5 -267.259357661918
         vertex -1301.06600293923 -10955.5 267.259357661918
         vertex -1308.84484449716 -10955.5 -270.012933813039
      endloop
   endfacet
   facet normal 0 -1 0
      outer loop
         vertex -1301.06600293923 -10955.5 267.259357661918
         vertex -1308.84484449716 -10955.5 270.012933813039
         vertex -1308.84484449716 -10955.5 -270.012933813039
      endloop
   endfacet
   facet normal 0 -1 0
      outer loop
         vertex -1308.84484449716 -10955.5 -270.012933813039
         vertex -1308.84484449716 -10955.5 270.012933813039
         vertex -1316.70014350193 -10955.5 -272.540152669615
      endloop
   endfacet
   facet normal 0 -1 0
      outer loop
         vertex -1308.84484449716 -10955.5 270.012933813039
         vertex -1316.70014350193 -10955.5 272.540152669615
         vertex -1316.70014350193 -10955.5 -272.540152669615
      endloop
   endfacet
   facet normal 0 -1 0
      outer loop
         vertex -1316.70014350193 -10955.5 -272.540152669615
         vertex -1316.70014350193 -10955.5 272.540152669615
         vertex -1324.62531469777 -10955.5 -274.838895613051
      endloop
   endfacet
   facet normal 0 -1 0
      outer loop
         vertex -1316.70014350193 -10955.5 272.540152669615
         vertex -1324.62531469777 -10955.5 274.838895613051
         vertex -1324.62531469777 -10955.5 -274.838895613051
      endloop
   endfacet
   facet normal 0 -1 0
      outer loop
         vertex -1324.62531469777 -10955.5 -274.838895613051
         vertex -1324.62531469777 -10955.5 274.838895613051
         vertex -1332.61371425365 -10955.5 -276.907235560719
      endloop
   endfacet
   facet normal 0 -1 0
      outer loop
         vertex -1324.62531469777 -10955.5 274.838895613051
         vertex -1332.61371425365 -10955.5 276.907235560719
         vertex -1332.61371425365 -10955.5 -276.907235560719
      endloop
   endfacet
   facet normal 0 -1 0
      outer loop
         vertex -1332.61371425365 -10955.5 -276.907235560719
         vertex -1332.61371425365 -10955.5 276.907235560719
         vertex -1340.65864533291 -10955.5 -278.743438581478
      endloop
   endfacet
   facet normal 0 -1 0
      outer loop
         vertex -1332.61371425365 -10955.5 276.907235560719
         vertex -1340.65864533291 -10955.5 278.743438581478
         vertex -1340.65864533291 -10955.5 -278.743438581478
      endloop
   endfacet
   facet normal 0 -1 0
      outer loop
         vertex -1340.65864533291 -10955.5 -278.743438581478
         vertex -1340.65864533291 -10955.5 278.743438581478
         vertex -1348.75336370738 -10955.5 -280.345965349258
      endloop
   endfacet
   facet normal 0 -1 0
      outer loop
         vertex -1340.65864533291 -10955.5 278.743438581478
         vertex -1348.75336370738 -10955.5 280.345965349258
         vertex -1348.75336370738 -10955.5 -280.345965349258
      endloop
   endfacet
   facet normal 0 -1 0
      outer loop
         vertex -1348.75336370738 -10955.5 -280.345965349258
         vertex -1348.75336370738 -10955.5 280.345965349258
         vertex -1356.8910834112 -10955.5 -281.713472433512
      endloop
   endfacet
   facet normal 0 -1 0
      outer loop
         vertex -1348.75336370738 -10955.5 280.345965349258
         vertex -1356.8910834112 -10955.5 281.713472433512
         vertex -1356.8910834112 -10955.5 -281.713472433512
      endloop
   endfacet
   facet normal 0 -1 0
      outer loop
         vertex -1356.8910834112 -10955.5 -281.713472433512
         vertex -1356.8910834112 -10955.5 281.713472433512
         vertex -1365.06498242962 -10955.5 -282.844813425438
      endloop
   endfacet
   facet normal 0 -1 0
      outer loop
         vertex -1356.8910834112 -10955.5 281.713472433512
         vertex -1365.06498242962 -10955.5 282.844813425438
         vertex -1365.06498242962 -10955.5 -282.844813425438
      endloop
   endfacet
   facet normal 0 -1 0
      outer loop
         vertex -1365.06498242962 -10955.5 -282.844813425438
         vertex -1365.06498242962 -10955.5 282.844813425438
         vertex -1373.26820841806 -10955.5 -283.739039899038
      endloop
   endfacet
   facet normal 0 -1 0
      outer loop
         vertex -1365.06498242962 -10955.5 282.844813425438
         vertex -1373.26820841806 -10955.5 283.739039899038
         vertex -1373.26820841806 -10955.5 -283.739039899038
      endloop
   endfacet
   facet normal 0 -1 0
      outer loop
         vertex -1373.26820841806 -10955.5 -283.739039899038
         vertex -1373.26820841806 -10955.5 283.739039899038
         vertex -1381.49388444652 -10955.5 -284.395402206203
      endloop
   endfacet
   facet normal 0 -1 0
      outer loop
         vertex -1373.26820841806 -10955.5 283.739039899038
         vertex -1381.49388444652 -10955.5 284.395402206203
         vertex -1381.49388444652 -10955.5 -284.395402206203
      endloop
   endfacet
   facet normal 0 -1 0
      outer loop
         vertex -1381.49388444652 -10955.5 -284.395402206203
         vertex -1381.49388444652 -10955.5 284.395402206203
         vertex -1389.73511476469 -10955.5 -284.813350105158
      endloop
   endfacet
   facet normal 0 -1 0
      outer loop
         vertex -1381.49388444652 -10955.5 284.395402206203
         vertex -1389.73511476469 -10955.5 284.813350105158
         vertex -1389.73511476469 -10955.5 -284.813350105158
      endloop
   endfacet
   facet normal 0 -1 0
      outer loop
         vertex -1389.73511476469 -10955.5 -284.813350105158
         vertex -1389.73511476469 -10955.5 284.813350105158
         vertex -1397.98499058279 -10955.5 -284.99253322174
      endloop
   endfacet
   facet normal 0 -1 0
      outer loop
         vertex -1389.73511476469 -10955.5 284.813350105158
         vertex -1397.98499058279 -10955.5 284.99253322174
         vertex -1397.98499058279 -10955.5 -284.99253322174
      endloop
   endfacet
   facet normal 0 -1 0
      outer loop
         vertex -1397.98499058279 -10955.5 -284.99253322174
         vertex -1397.98499058279 -10955.5 284.99253322174
         vertex -1406.23659586335 -10955.5 -284.932801343124
      endloop
   endfacet
   facet normal 0 -1 0
      outer loop
         vertex -1397.98499058279 -10955.5 284.99253322174
         vertex -1406.23659586335 -10955.5 284.932801343124
         vertex -1406.23659586335 -10955.5 -284.932801343124
      endloop
   endfacet
   facet normal 0 -1 0
      outer loop
         vertex -1406.23659586335 -10955.5 -284.932801343124
         vertex -1406.23659586335 -10955.5 284.932801343124
         vertex -1414.48301311903 -10955.5 -284.63420454375
      endloop
   endfacet
   facet normal 0 -1 0
      outer loop
         vertex -1406.23659586335 -10955.5 284.932801343124
         vertex -1414.48301311903 -10955.5 284.63420454375
         vertex -1414.48301311903 -10955.5 -284.63420454375
      endloop
   endfacet
   facet normal 0 -1 0
      outer loop
         vertex -1414.48301311903 -10955.5 -284.63420454375
         vertex -1414.48301311903 -10955.5 284.63420454375
         vertex -1422.71732921175 -10955.5 -284.096993143344
      endloop
   endfacet
   facet normal 0 -1 0
      outer loop
         vertex -1414.48301311903 -10955.5 284.63420454375
         vertex -1422.71732921175 -10955.5 284.096993143344
         vertex -1422.71732921175 -10955.5 -284.096993143344
      endloop
   endfacet
   facet normal 0 -1 0
      outer loop
         vertex -1422.71732921175 -10955.5 -284.096993143344
         vertex -1422.71732921175 -10955.5 284.096993143344
         vertex -1430.93264114804 -10955.5 -283.321617497072
      endloop
   endfacet
   facet normal 0 -1 0
      outer loop
         vertex -1422.71732921175 -10955.5 284.096993143344
         vertex -1430.93264114804 -10955.5 283.321617497072
         vertex -1430.93264114804 -10955.5 -283.321617497072
      endloop
   endfacet
   facet normal 0 -1 0
      outer loop
         vertex -1430.93264114804 -10955.5 -283.321617497072
         vertex -1430.93264114804 -10955.5 283.321617497072
         vertex -1439.12206186603 -10955.5 -282.308727617992
      endloop
   endfacet
   facet normal 0 -1 0
      outer loop
         vertex -1430.93264114804 -10955.5 283.321617497072
         vertex -1439.12206186603 -10955.5 282.308727617992
         vertex -1439.12206186603 -10955.5 -282.308727617992
      endloop
   endfacet
   facet normal 0 -1 0
      outer loop
         vertex -1439.12206186603 -10955.5 -282.308727617992
         vertex -1439.12206186603 -10955.5 282.308727617992
         vertex -1447.27872600897 -10955.5 -281.059172632144
      endloop
   endfacet
   facet normal 0 -1 0
      outer loop
         vertex -1439.12206186603 -10955.5 282.308727617992
         vertex -1447.27872600897 -10955.5 281.059172632144
         vertex -1447.27872600897 -10955.5 -281.059172632144
      endloop
   endfacet
   facet normal 0 -1 0
      outer loop
         vertex -1447.27872600897 -10955.5 -281.059172632144
         vertex -1447.27872600897 -10955.5 281.059172632144
         vertex -1455.39579568062 -10955.5 -279.574000066703
      endloop
   endfacet
   facet normal 0 -1 0
      outer loop
         vertex -1447.27872600897 -10955.5 281.059172632144
         vertex -1455.39579568062 -10955.5 279.574000066703
         vertex -1455.39579568062 -10955.5 -279.574000066703
      endloop
   endfacet
   facet normal 0 -1 0
      outer loop
         vertex -1455.39579568062 -10955.5 -279.574000066703
         vertex -1455.39579568062 -10955.5 279.574000066703
         vertex -1463.46646617755 -10955.5 -277.85445497182
      endloop
   endfacet
   facet normal 0 -1 0
      outer loop
         vertex -1455.39579568062 -10955.5 279.574000066703
         vertex -1463.46646617755 -10955.5 277.85445497182
         vertex -1463.46646617755 -10955.5 -277.85445497182
      endloop
   endfacet
   facet normal 0 -1 0
      outer loop
         vertex -1463.46646617755 -10955.5 -277.85445497182
         vertex -1463.46646617755 -10955.5 277.85445497182
         vertex -1471.48397169374 -10955.5 -275.901978876868
      endloop
   endfacet
   facet normal 0 -1 0
      outer loop
         vertex -1463.46646617755 -10955.5 277.85445497182
         vertex -1471.48397169374 -10955.5 275.901978876868
         vertex -1471.48397169374 -10955.5 -275.901978876868
      endloop
   endfacet
   facet normal 0 -1 0
      outer loop
         vertex -1471.48397169374 -10955.5 -275.901978876868
         vertex -1471.48397169374 -10955.5 275.901978876868
         vertex -1479.44159099241 -10955.5 -273.718208581984
      endloop
   endfacet
   facet normal 0 -1 0
      outer loop
         vertex -1471.48397169374 -10955.5 275.901978876868
         vertex -1479.44159099241 -10955.5 273.718208581984
         vertex -1479.44159099241 -10955.5 -273.718208581984
      endloop
   endfacet
   facet normal 0 -1 0
      outer loop
         vertex -1479.44159099241 -10955.5 -273.718208581984
         vertex -1479.44159099241 -10955.5 273.718208581984
         vertex -1487.33265304063 -10955.5 -271.304974785899
      endloop
   endfacet
   facet normal 0 -1 0
      outer loop
         vertex -1479.44159099241 -10955.5 273.718208581984
         vertex -1487.33265304063 -10955.5 271.304974785899
         vertex -1487.33265304063 -10955.5 -271.304974785899
      endloop
   endfacet
   facet normal 0 -1 0
      outer loop
         vertex -1487.33265304063 -10955.5 -271.304974785899
         vertex -1487.33265304063 -10955.5 271.304974785899
         vertex -1495.15054260174 -10955.5 -268.664300551234
      endloop
   endfacet
   facet normal 0 -1 0
      outer loop
         vertex -1487.33265304063 -10955.5 271.304974785899
         vertex -1495.15054260174 -10955.5 268.664300551234
         vertex -1495.15054260174 -10955.5 -268.664300551234
      endloop
   endfacet
   facet normal 0 -1 0
      outer loop
         vertex -1495.15054260174 -10955.5 -268.664300551234
         vertex -1495.15054260174 -10955.5 268.664300551234
         vertex -1502.88870578108 -10955.5 -265.798399608519
      endloop
   endfacet
   facet normal 0 -1 0
      outer loop
         vertex -1495.15054260174 -10955.5 268.664300551234
         vertex -1502.88870578108 -10955.5 265.798399608519
         vertex -1502.88870578108 -10955.5 -265.798399608519
      endloop
   endfacet
   facet normal 0 -1 0
      outer loop
         vertex -1502.88870578108 -10955.5 -265.798399608519
         vertex -1502.88870578108 -10955.5 265.798399608519
         vertex -1510.54065552018 -10955.5 -262.709674500385
      endloop
   endfacet
   facet normal 0 -1 0
      outer loop
         vertex -1502.88870578108 -10955.5 265.798399608519
         vertex -1510.54065552018 -10955.5 262.709674500385
         vertex -1510.54065552018 -10955.5 -262.709674500385
      endloop
   endfacet
   facet normal 0 -1 0
      outer loop
         vertex -1510.54065552018 -10955.5 -262.709674500385
         vertex -1510.54065552018 -10955.5 262.709674500385
         vertex -1518.09997703509 -10955.5 -259.400714567457
      endloop
   endfacet
   facet normal 0 -1 0
      outer loop
         vertex -1510.54065552018 -10955.5 262.709674500385
         vertex -1518.09997703509 -10955.5 259.400714567457
         vertex -1518.09997703509 -10955.5 -259.400714567457
      endloop
   endfacet
   facet normal 0 -1 0
      outer loop
         vertex -1518.09997703509 -10955.5 -259.400714567457
         vertex -1518.09997703509 -10955.5 259.400714567457
         vertex -1525.56033319393 -10955.5 -255.874293777661
      endloop
   endfacet
   facet normal 0 -1 0
      outer loop
         vertex -1518.09997703509 -10955.5 259.400714567457
         vertex -1525.56033319393 -10955.5 255.874293777661
         vertex -1525.56033319393 -10955.5 -255.874293777661
      endloop
   endfacet
   facet normal 0 -1 0
      outer loop
         vertex -1525.56033319393 -10955.5 -255.874293777661
         vertex -1525.56033319393 -10955.5 255.874293777661
         vertex -1532.91546982949 -10955.5 -252.133368400752
      endloop
   endfacet
   facet normal 0 -1 0
      outer loop
         vertex -1525.56033319393 -10955.5 255.874293777661
         vertex -1532.91546982949 -10955.5 252.133368400752
         vertex -1532.91546982949 -10955.5 -252.133368400752
      endloop
   endfacet
   facet normal 0 -1 0
      outer loop
         vertex -1532.91546982949 -10955.5 -252.133368400752
         vertex -1532.91546982949 -10955.5 252.133368400752
         vertex -1540.15922098222 -10955.5 -248.18107453001
      endloop
   endfacet
   facet normal 0 -1 0
      outer loop
         vertex -1532.91546982949 -10955.5 252.133368400752
         vertex -1540.15922098222 -10955.5 248.18107453001
         vertex -1540.15922098222 -10955.5 -248.18107453001
      endloop
   endfacet
   facet normal 0 -1 0
      outer loop
         vertex -1540.15922098222 -10955.5 -248.18107453001
         vertex -1540.15922098222 -10955.5 248.18107453001
         vertex -1547.28551406927 -10955.5 -244.020725453193
      endloop
   endfacet
   facet normal 0 -1 0
      outer loop
         vertex -1540.15922098222 -10955.5 248.18107453001
         vertex -1547.28551406927 -10955.5 244.020725453193
         vertex -1547.28551406927 -10955.5 -244.020725453193
      endloop
   endfacet
   facet normal 0 -1 0
      outer loop
         vertex -1547.28551406927 -10955.5 -244.020725453193
         vertex -1547.28551406927 -10955.5 244.020725453193
         vertex -1554.28837497523 -10955.5 -239.655808874936
      endloop
   endfacet
   facet normal 0 -1 0
      outer loop
         vertex -1547.28551406927 -10955.5 244.020725453193
         vertex -1554.28837497523 -10955.5 239.655808874936
         vertex -1554.28837497523 -10955.5 -239.655808874936
      endloop
   endfacet
   facet normal 0 -1 0
      outer loop
         vertex -1554.28837497523 -10955.5 -239.655808874936
         vertex -1554.28837497523 -10955.5 239.655808874936
         vertex -1561.16193306042 -10955.5 -235.089983992945
      endloop
   endfacet
   facet normal 0 -1 0
      outer loop
         vertex -1554.28837497523 -10955.5 239.655808874936
         vertex -1561.16193306042 -10955.5 235.089983992945
         vertex -1561.16193306042 -10955.5 -235.089983992945
      endloop
   endfacet
   facet normal 0 -1 0
      outer loop
         vertex -1561.16193306042 -10955.5 -235.089983992945
         vertex -1561.16193306042 -10955.5 235.089983992945
         vertex -1567.90042608229 -10955.5 -230.327078430413
      endloop
   endfacet
   facet normal 0 -1 0
      outer loop
         vertex -1561.16193306042 -10955.5 235.089983992945
         vertex -1567.90042608229 -10955.5 230.327078430413
         vertex -1567.90042608229 -10955.5 -230.327078430413
      endloop
   endfacet
   facet normal 0 -1 0
      outer loop
         vertex -1567.90042608229 -10955.5 -230.327078430413
         vertex -1567.90042608229 -10955.5 230.327078430413
         vertex -1574.49820502608 -10955.5 -225.371085027244
      endloop
   endfacet
   facet normal 0 -1 0
      outer loop
         vertex -1567.90042608229 -10955.5 230.327078430413
         vertex -1574.49820502608 -10955.5 225.371085027244
         vertex -1574.49820502608 -10955.5 -225.371085027244
      endloop
   endfacet
   facet normal 0 -1 0
      outer loop
         vertex -1574.49820502608 -10955.5 -225.371085027244
         vertex -1574.49820502608 -10955.5 225.371085027244
         vertex -1580.94973884049 -10955.5 -220.226158492781
      endloop
   endfacet
   facet normal 0 -1 0
      outer loop
         vertex -1574.49820502608 -10955.5 225.371085027244
         vertex -1580.94973884049 -10955.5 220.226158492781
         vertex -1580.94973884049 -10955.5 -220.226158492781
      endloop
   endfacet
   facet normal 0 -1 0
      outer loop
         vertex -1580.94973884049 -10955.5 -220.226158492781
         vertex -1580.94973884049 -10955.5 220.226158492781
         vertex -1587.24961907444 -10955.5 -214.896611922825
      endloop
   endfacet
   facet normal 0 -1 0
      outer loop
         vertex -1580.94973884049 -10955.5 220.226158492781
         vertex -1587.24961907444 -10955.5 214.896611922825
         vertex -1587.24961907444 -10955.5 -214.896611922825
      endloop
   endfacet
   facet normal 0 -1 0
      outer loop
         vertex -1587.24961907444 -10955.5 -214.896611922825
         vertex -1587.24961907444 -10955.5 214.896611922825
         vertex -1593.39256441112 -10955.5 -209.38691318388
      endloop
   endfacet
   facet normal 0 -1 0
      outer loop
         vertex -1587.24961907444 -10955.5 214.896611922825
         vertex -1593.39256441112 -10955.5 209.38691318388
         vertex -1593.39256441112 -10955.5 -209.38691318388
      endloop
   endfacet
   facet normal 0 -1 0
      outer loop
         vertex -1593.39256441112 -10955.5 -209.38691318388
         vertex -1593.39256441112 -10955.5 209.38691318388
         vertex -1599.37342509543 -10955.5 -203.701681167651
      endloop
   endfacet
   facet normal 0 -1 0
      outer loop
         vertex -1593.39256441112 -10955.5 209.38691318388
         vertex -1599.37342509543 -10955.5 203.701681167651
         vertex -1599.37342509543 -10955.5 -203.701681167651
      endloop
   endfacet
   facet normal 0 -1 0
      outer loop
         vertex -1599.37342509543 -10955.5 -203.701681167651
         vertex -1599.37342509543 -10955.5 203.701681167651
         vertex -1605.18718725108 -10955.5 -197.845681918934
      endloop
   endfacet
   facet normal 0 -1 0
      outer loop
         vertex -1599.37342509543 -10955.5 203.701681167651
         vertex -1605.18718725108 -10955.5 197.845681918934
         vertex -1605.18718725108 -10955.5 -197.845681918934
      endloop
   endfacet
   facet normal 0 -1 0
      outer loop
         vertex -1605.18718725108 -10955.5 -197.845681918934
         vertex -1605.18718725108 -10955.5 197.845681918934
         vertex -1610.82897708386 -10955.5 -191.823824640145
      endloop
   endfacet
   facet normal 0 -1 0
      outer loop
         vertex -1605.18718725108 -10955.5 197.845681918934
         vertex -1610.82897708386 -10955.5 191.823824640145
         vertex -1610.82897708386 -10955.5 -191.823824640145
      endloop
   endfacet
   facet normal 0 -1 0
      outer loop
         vertex -1610.82897708386 -10955.5 -191.823824640145
         vertex -1610.82897708386 -10955.5 191.823824640145
         vertex -1616.29406496745 -10955.5 -185.641157575833
      endloop
   endfacet
   facet normal 0 -1 0
      outer loop
         vertex -1610.82897708386 -10955.5 191.823824640145
         vertex -1616.29406496745 -10955.5 185.641157575833
         vertex -1616.29406496745 -10955.5 -185.641157575833
      endloop
   endfacet
   facet normal 0 -1 0
      outer loop
         vertex -1616.29406496745 -10955.5 -185.641157575833
         vertex -1616.29406496745 -10955.5 185.641157575833
         vertex -1621.57786940831 -10955.5 -179.302863780641
      endloop
   endfacet
   facet normal 0 -1 0
      outer loop
         vertex -1616.29406496745 -10955.5 185.641157575833
         vertex -1621.57786940831 -10955.5 179.302863780641
         vertex -1621.57786940831 -10955.5 -179.302863780641
      endloop
   endfacet
   facet normal 0 -1 0
      outer loop
         vertex -1621.57786940831 -10955.5 -179.302863780641
         vertex -1621.57786940831 -10955.5 179.302863780641
         vertex -1626.67596088649 -10955.5 -172.81425677424
      endloop
   endfacet
   facet normal 0 -1 0
      outer loop
         vertex -1621.57786940831 -10955.5 179.302863780641
         vertex -1626.67596088649 -10955.5 172.81425677424
         vertex -1626.67596088649 -10955.5 -172.81425677424
      endloop
   endfacet
   facet normal 0 -1 0
      outer loop
         vertex -1626.67596088649 -10955.5 -172.81425677424
         vertex -1626.67596088649 -10955.5 172.81425677424
         vertex -1631.58406556896 -10955.5 -166.180776086902
      endloop
   endfacet
   facet normal 0 -1 0
      outer loop
         vertex -1626.67596088649 -10955.5 172.81425677424
         vertex -1631.58406556896 -10955.5 166.180776086902
         vertex -1631.58406556896 -10955.5 -166.180776086902
      endloop
   endfacet
   facet normal 0 -1 0
      outer loop
         vertex -1631.58406556896 -10955.5 -166.180776086902
         vertex -1631.58406556896 -10955.5 166.180776086902
         vertex -1636.29806889247 -10955.5 -159.407982699431
      endloop
   endfacet
   facet normal 0 -1 0
      outer loop
         vertex -1631.58406556896 -10955.5 166.180776086902
         vertex -1636.29806889247 -10955.5 159.407982699431
         vertex -1636.29806889247 -10955.5 -159.407982699431
      endloop
   endfacet
   facet normal 0 -1 0
      outer loop
         vertex -1636.29806889247 -10955.5 -159.407982699431
         vertex -1636.29806889247 -10955.5 159.407982699431
         vertex -1640.81401901284 -10955.5 -152.501554381281
      endloop
   endfacet
   facet normal 0 -1 0
      outer loop
         vertex -1636.29806889247 -10955.5 159.407982699431
         vertex -1640.81401901284 -10955.5 152.501554381281
         vertex -1640.81401901284 -10955.5 -152.501554381281
      endloop
   endfacet
   facet normal 0 -1 0
      outer loop
         vertex -1640.81401901284 -10955.5 -152.501554381281
         vertex -1640.81401901284 -10955.5 152.501554381281
         vertex -1645.12813011791 -10955.5 -145.467280930767
      endloop
   endfacet
   facet normal 0 -1 0
      outer loop
         vertex -1640.81401901284 -10955.5 152.501554381281
         vertex -1645.12813011791 -10955.5 145.467280930767
         vertex -1645.12813011791 -10955.5 -145.467280930767
      endloop
   endfacet
   facet normal 0 -1 0
      outer loop
         vertex -1645.12813011791 -10955.5 -145.467280930767
         vertex -1645.12813011791 -10955.5 145.467280930767
         vertex -1649.23678560121 -10955.5 -138.311059321358
      endloop
   endfacet
   facet normal 0 -1 0
      outer loop
         vertex -1645.12813011791 -10955.5 145.467280930767
         vertex -1649.23678560121 -10955.5 138.311059321358
         vertex -1649.23678560121 -10955.5 -138.311059321358
      endloop
   endfacet
   facet normal 0 -1 0
      outer loop
         vertex -1649.23678560121 -10955.5 -138.311059321358
         vertex -1649.23678560121 -10955.5 138.311059321358
         vertex -1653.13654109389 -10955.5 -131.038888758129
      endloop
   endfacet
   facet normal 0 -1 0
      outer loop
         vertex -1649.23678560121 -10955.5 138.311059321358
         vertex -1653.13654109389 -10955.5 131.038888758129
         vertex -1653.13654109389 -10955.5 -131.038888758129
      endloop
   endfacet
   facet normal 0 -1 0
      outer loop
         vertex -1653.13654109389 -10955.5 -131.038888758129
         vertex -1653.13654109389 -10955.5 131.038888758129
         vertex -1656.82412735219 -10955.5 -123.656865648504
      endloop
   endfacet
   facet normal 0 -1 0
      outer loop
         vertex -1653.13654109389 -10955.5 131.038888758129
         vertex -1656.82412735219 -10955.5 123.656865648504
         vertex -1656.82412735219 -10955.5 -123.656865648504
      endloop
   endfacet
   facet normal 0 -1 0
      outer loop
         vertex -1656.82412735219 -10955.5 -123.656865648504
         vertex -1656.82412735219 -10955.5 123.656865648504
         vertex -1660.29645299808 -10955.5 -116.171178491514
      endloop
   endfacet
   facet normal 0 -1 0
      outer loop
         vertex -1656.82412735219 -10955.5 123.656865648504
         vertex -1660.29645299808 -10955.5 116.171178491514
         vertex -1660.29645299808 -10955.5 -116.171178491514
      endloop
   endfacet
   facet normal 0 -1 0
      outer loop
         vertex -1660.29645299808 -10955.5 -116.171178491514
         vertex -1660.29645299808 -10955.5 116.171178491514
         vertex -1663.55060711086 -10955.5 -108.588102689854
      endloop
   endfacet
   facet normal 0 -1 0
      outer loop
         vertex -1660.29645299808 -10955.5 116.171178491514
         vertex -1663.55060711086 -10955.5 108.588102689854
         vertex -1663.55060711086 -10955.5 -108.588102689854
      endloop
   endfacet
   facet normal 0 -1 0
      outer loop
         vertex -1663.55060711086 -10955.5 -108.588102689854
         vertex -1663.55060711086 -10955.5 108.588102689854
         vertex -1666.58386166742 -10955.5 -100.913995289087
      endloop
   endfacet
   facet normal 0 -1 0
      outer loop
         vertex -1663.55060711086 -10955.5 108.588102689854
         vertex -1666.58386166742 -10955.5 100.913995289087
         vertex -1666.58386166742 -10955.5 -100.913995289087
      endloop
   endfacet
   facet normal 0 -1 0
      outer loop
         vertex -1666.58386166742 -10955.5 -100.913995289087
         vertex -1666.58386166742 -10955.5 100.913995289087
         vertex -1669.39367382923 -10955.5 -93.1552896484036
      endloop
   endfacet
   facet normal 0 -1 0
      outer loop
         vertex -1666.58386166742 -10955.5 100.913995289087
         vertex -1669.39367382923 -10955.5 93.1552896484035
         vertex -1669.39367382923 -10955.5 -93.1552896484036
      endloop
   endfacet
   facet normal 0 -1 0
      outer loop
         vertex -1669.39367382923 -10955.5 -93.1552896484036
         vertex -1669.39367382923 -10955.5 93.1552896484035
         vertex -1671.97768807401 -10955.5 -85.318490047407
      endloop
   endfacet
   facet normal 0 -1 0
      outer loop
         vertex -1669.39367382923 -10955.5 93.1552896484035
         vertex -1671.97768807401 -10955.5 85.318490047407
         vertex -1671.97768807401 -10955.5 -85.318490047407
      endloop
   endfacet
   facet normal 0 -1 0
      outer loop
         vertex -1671.97768807401 -10955.5 -85.318490047407
         vertex -1671.97768807401 -10955.5 85.318490047407
         vertex -1674.33373817045 -10955.5 -77.4101662334441
      endloop
   endfacet
   facet normal 0 -1 0
      outer loop
         vertex -1671.97768807401 -10955.5 85.318490047407
         vertex -1674.33373817045 -10955.5 77.410166233444
         vertex -1674.33373817045 -10955.5 -77.4101662334441
      endloop
   endfacet
   facet normal 0 -1 0
      outer loop
         vertex -1674.33373817045 -10955.5 -77.4101662334441
         vertex -1674.33373817045 -10955.5 77.410166233444
         vertex -1676.45984899418 -10955.5 -69.4369479140537
      endloop
   endfacet
   facet normal 0 -1 0
      outer loop
         vertex -1674.33373817045 -10955.5 77.410166233444
         vertex -1676.45984899418 -10955.5 69.4369479140537
         vertex -1676.45984899418 -10955.5 -69.4369479140537
      endloop
   endfacet
   facet normal 0 -1 0
      outer loop
         vertex -1676.45984899418 -10955.5 -69.4369479140537
         vertex -1676.45984899418 -10955.5 69.4369479140537
         vertex -1678.35423818356 -10955.5 -61.4055191991492
      endloop
   endfacet
   facet normal 0 -1 0
      outer loop
         vertex -1676.45984899418 -10955.5 69.4369479140537
         vertex -1678.35423818356 -10955.5 61.4055191991491
         vertex -1678.35423818356 -10955.5 -61.4055191991492
      endloop
   endfacet
   facet normal 0 -1 0
      outer loop
         vertex -1678.35423818356 -10955.5 -61.4055191991492
         vertex -1678.35423818356 -10955.5 61.4055191991491
         vertex -1680.01531763388 -10955.5 -53.3226129975935
      endloop
   endfacet
   facet normal 0 -1 0
      outer loop
         vertex -1678.35423818356 -10955.5 61.4055191991491
         vertex -1680.01531763388 -10955.5 53.3226129975934
         vertex -1680.01531763388 -10955.5 -53.3226129975935
      endloop
   endfacet
   facet normal 0 -1 0
      outer loop
         vertex -1680.01531763388 -10955.5 -53.3226129975935
         vertex -1680.01531763388 -10955.5 53.3226129975934
         vertex -1681.4416948287 -10955.5 -45.1950053728663
      endloop
   endfacet
   facet normal 0 -1 0
      outer loop
         vertex -1680.01531763388 -10955.5 53.3226129975934
         vertex -1681.4416948287 -10955.5 45.1950053728663
         vertex -1681.4416948287 -10955.5 -45.1950053728663
      endloop
   endfacet
   facet normal 0 -1 0
      outer loop
         vertex -1681.4416948287 -10955.5 -45.1950053728663
         vertex -1681.4416948287 -10955.5 45.1950053728663
         vertex -1682.63217400721 -10955.5 -37.029509862553
      endloop
   endfacet
   facet normal 0 -1 0
      outer loop
         vertex -1681.4416948287 -10955.5 45.1950053728663
         vertex -1682.63217400721 -10955.5 37.0295098625528
         vertex -1682.63217400721 -10955.5 -37.029509862553
      endloop
   endfacet
   facet normal 0 -1 0
      outer loop
         vertex -1682.63217400721 -10955.5 -37.029509862553
         vertex -1682.63217400721 -10955.5 37.0295098625528
         vertex -1683.58575716669 -10955.5 -28.8329717664182
      endloop
   endfacet
   facet normal 0 -1 0
      outer loop
         vertex -1682.63217400721 -10955.5 37.0295098625528
         vertex -1683.58575716669 -10955.5 28.8329717664182
         vertex -1683.58575716669 -10955.5 -28.8329717664182
      endloop
   endfacet
   facet normal 0 -1 0
      outer loop
         vertex -1683.58575716669 -10955.5 -28.8329717664182
         vertex -1683.58575716669 -10955.5 28.8329717664182
         vertex -1684.30164489911 -10955.5 -20.6122624078534
      endloop
   endfacet
   facet normal 0 -1 0
      outer loop
         vertex -1683.58575716669 -10955.5 28.8329717664182
         vertex -1684.30164489911 -10955.5 20.6122624078533
         vertex -1684.30164489911 -10955.5 -20.6122624078534
      endloop
   endfacet
   facet normal 0 -1 0
      outer loop
         vertex -1684.30164489911 -10955.5 -20.6122624078534
         vertex -1684.30164489911 -10955.5 20.6122624078533
         vertex -1684.77923706133 -10955.5 -12.3742733735071
      endloop
   endfacet
   facet normal 0 -1 0
      outer loop
         vertex -1684.30164489911 -10955.5 20.6122624078533
         vertex -1684.77923706133 -10955.5 12.3742733735071
         vertex -1684.77923706133 -10955.5 -12.3742733735071
      endloop
   endfacet
   facet normal 0 -1 0
      outer loop
         vertex -1684.77923706133 -10955.5 -12.3742733735071
         vertex -1684.77923706133 -10955.5 12.3742733735071
         vertex -1685.01813327821 -10955.5 -4.12591073592937
      endloop
   endfacet
   facet normal 0 -1 0
      outer loop
         vertex -1684.77923706133 -10955.5 12.3742733735071
         vertex -1685.01813327821 -10955.5 4.12591073592924
         vertex -1685.01813327821 -10955.5 -4.12591073592937
      endloop
   endfacet
endsolid
